<svg xmlns="http://www.w3.org/2000/svg" viewBox="0 0 256 256">
  <rect x="12" y="12" width="232" height="232" rx="48" fill="#192229"/>
  <g fill="none" stroke-linecap="butt">
    <circle
      cx="128"
      cy="128"
      r="91"
      stroke="#2db8c4"
      stroke-width="9"
      stroke-dasharray="132 10 132 10 132 10 132 10"
    />
    <circle
      cx="128"
      cy="128"
      r="65"
      stroke="#fff"
      stroke-width="7"
      stroke-dasharray="72 25 72 25 72 25 72 25"
    />
    <circle
      cx="128"
      cy="128"
      r="39"
      stroke="#9fe8ef"
      stroke-width="8"
      stroke-dasharray="97 25 97 25"
    />
  </g>
  <path d="M128 128 147 42A88 88 0 0 1 203 81Z" fill="#9fe8ef"/>
  <path
    d="M25 129h48l8-18 11 38 11-24 8 14h29m-12 0h28l8-18 11 38 11-24 8 14h39"
    fill="none"
    stroke="#2db8c4"
    stroke-width="7"
    stroke-linejoin="miter"
  />
  <circle cx="128" cy="128" r="15" fill="#fff"/>
  <circle cx="128" cy="128" r="9" fill="#192229"/>
  <circle cx="78" cy="72" r="9" fill="#2db8c4"/>
  <circle cx="149" cy="197" r="9" fill="#2db8c4"/>
  <circle cx="190" cy="119" r="10" fill="#ff5c57"/>
</svg>
